<?xml version="1.0" standalone="no"?>
<!DOCTYPE svg PUBLIC "-//W3C//DTD SVG 20010904//EN"
 "http://www.w3.org/TR/2001/REC-SVG-20010904/DTD/svg10.dtd">
<svg version="1.0" xmlns="http://www.w3.org/2000/svg"
 width="150pt" height="200pt" viewBox="0 0 300.000000 400.000000"
 preserveAspectRatio="xMidYMid meet">
<metadata>
Created by potrace 1.10, written by Peter Selinger 2001-2011
</metadata>
<g transform="translate(0.000000,400.000000) scale(0.100000,-0.100000)"
fill="#000000" stroke="none">
<path d="M1350 2525 c0 -67 -107 -887 -121 -922 -16 -42 -34 -13 -79 127 -43
133 -115 270 -173 330 -38 39 -93 55 -124 35 -28 -19 -43 -70 -93 -315 -44
-217 -48 -264 -23 -300 23 -34 33 -40 70 -40 49 0 60 28 90 211 31 194 41 241
52 234 14 -8 47 -86 65 -155 21 -75 73 -180 116 -232 35 -42 103 -78 148 -78
20 0 43 10 63 28 29 26 31 33 50 177 10 83 32 264 48 404 20 180 32 256 42
262 24 15 120 50 199 71 60 17 106 21 230 21 143 1 161 -1 238 -27 104 -34
126 -54 117 -104 -10 -55 -37 -100 -110 -185 -86 -101 -282 -262 -439 -363
l-29 -18 6 24 c3 14 24 77 46 140 22 63 54 169 71 234 34 133 31 168 -17 206
-30 23 -90 37 -104 23 -5 -5 -59 -173 -119 -373 -85 -283 -115 -369 -135 -390
-34 -35 -32 -66 7 -102 37 -34 67 -34 140 1 131 64 463 297 607 426 157 142
221 238 221 332 0 71 -18 109 -74 161 -168 154 -555 208 -807 112 l-49 -18 0
21 c-1 29 -17 50 -60 76 -58 35 -70 30 -70 -34z m96 -52 l41 -47 74 22 c169
50 326 52 502 8 122 -31 227 -85 270 -139 29 -37 32 -48 32 -108 0 -63 -2 -70
-48 -138 -93 -135 -327 -325 -647 -524 -97 -60 -122 -71 -160 -72 -39 0 -45 3
-48 22 -2 12 6 35 18 51 12 16 57 147 101 293 44 145 91 301 105 347 20 66 28
82 44 82 31 0 60 -36 60 -73 0 -38 -53 -236 -99 -371 -37 -109 -38 -131 -7
-151 22 -15 27 -15 58 1 144 74 467 368 525 479 47 90 50 119 19 165 -28 42
-89 71 -206 96 -185 39 -525 -15 -617 -99 -39 -37 -31 8 -88 -487 -20 -168
-38 -313 -41 -323 -3 -10 -17 -25 -30 -34 -22 -14 -28 -14 -69 1 -78 30 -139
123 -190 289 -29 95 -66 150 -98 145 -38 -6 -57 -48 -77 -178 -27 -174 -39
-227 -57 -242 -13 -10 -18 -9 -34 11 -11 13 -19 33 -19 46 0 59 79 440 101
489 23 50 75 25 135 -65 54 -82 96 -172 119 -259 42 -155 104 -200 150 -110 8
15 40 227 72 474 32 245 60 446 63 446 3 0 23 -21 46 -47z"/>
</g>
</svg>
